<svg width="20" height="20" viewBox="0 0 20 20" fill="none" xmlns="http://www.w3.org/2000/svg">
<circle cx="10" cy="10" r="9.5" fill="#FBF3F2" stroke="#1C768F"/>
<path d="M9.75 13.75C9.33579 14.1642 8.66421 14.1642 8.25 13.75L4.75 10.25C4.33579 9.83579 4.33579 9.16421 4.75 8.75C5.16421 8.33579 5.83579 8.33579 6.25 8.75L9.75 12.25C10.1642 12.6642 10.1642 13.3358 9.75 13.75Z" fill="#FA991C"/>
<path d="M8.25 13.75C7.83579 13.3358 7.83579 12.6642 8.25 12.25L14.75 5.75C15.1642 5.33579 15.8358 5.33579 16.25 5.75C16.6642 6.16421 16.6642 6.83579 16.25 7.25L9.75 13.75C9.33579 14.1642 8.66421 14.1642 8.25 13.75Z" fill="#FA991C"/>
</svg>
