<svg width="79" height="20" viewBox="0 0 79 20" fill="none" xmlns="http://www.w3.org/2000/svg">
<circle cx="10" cy="10" r="9.5" fill="#FBF3F2" stroke="#1C768F"/>
<path d="M9.75 13.75C9.33579 14.1642 8.66421 14.1642 8.25 13.75L4.75 10.25C4.33579 9.83579 4.33579 9.16421 4.75 8.75V8.75C5.16421 8.33579 5.83579 8.33579 6.25 8.75L9.75 12.25C10.1642 12.6642 10.1642 13.3358 9.75 13.75V13.75Z" fill="#FA991C"/>
<path d="M8.25 13.75C7.83579 13.3358 7.83579 12.6642 8.25 12.25L14.75 5.75C15.1642 5.33579 15.8358 5.33579 16.25 5.75V5.75C16.6642 6.16421 16.6642 6.83579 16.25 7.25L9.75 13.75C9.33579 14.1642 8.66421 14.1642 8.25 13.75V13.75Z" fill="#FA991C"/>
<path d="M26.7051 11.8027C26.7051 11.627 26.6777 11.4707 26.623 11.334C26.5723 11.1973 26.4805 11.0723 26.3477 10.959C26.2148 10.8457 26.0273 10.7363 25.7852 10.6309C25.5469 10.5215 25.2422 10.4102 24.8711 10.2969C24.4648 10.1719 24.0898 10.0332 23.7461 9.88086C23.4062 9.72461 23.1094 9.54492 22.8555 9.3418C22.6016 9.13477 22.4043 8.89844 22.2637 8.63281C22.123 8.36328 22.0527 8.05273 22.0527 7.70117C22.0527 7.35352 22.125 7.03711 22.2695 6.75195C22.418 6.4668 22.627 6.2207 22.8965 6.01367C23.1699 5.80273 23.4922 5.64062 23.8633 5.52734C24.2344 5.41016 24.6445 5.35156 25.0938 5.35156C25.7266 5.35156 26.2715 5.46875 26.7285 5.70312C27.1895 5.9375 27.543 6.25195 27.7891 6.64648C28.0391 7.04102 28.1641 7.47656 28.1641 7.95312H26.7051C26.7051 7.67188 26.6445 7.42383 26.5234 7.20898C26.4062 6.99023 26.2266 6.81836 25.9844 6.69336C25.7461 6.56836 25.4434 6.50586 25.0762 6.50586C24.7285 6.50586 24.4395 6.55859 24.209 6.66406C23.9785 6.76953 23.8066 6.91211 23.6934 7.0918C23.5801 7.27148 23.5234 7.47461 23.5234 7.70117C23.5234 7.86133 23.5605 8.00781 23.6348 8.14062C23.709 8.26953 23.8223 8.39062 23.9746 8.50391C24.127 8.61328 24.3184 8.7168 24.5488 8.81445C24.7793 8.91211 25.0508 9.00586 25.3633 9.0957C25.8359 9.23633 26.248 9.39258 26.5996 9.56445C26.9512 9.73242 27.2441 9.92383 27.4785 10.1387C27.7129 10.3535 27.8887 10.5977 28.0059 10.8711C28.123 11.1406 28.1816 11.4473 28.1816 11.791C28.1816 12.1504 28.1094 12.4746 27.9648 12.7637C27.8203 13.0488 27.6133 13.293 27.3438 13.4961C27.0781 13.6953 26.7578 13.8496 26.3828 13.959C26.0117 14.0645 25.5977 14.1172 25.1406 14.1172C24.7305 14.1172 24.3262 14.0625 23.9277 13.9531C23.5332 13.8438 23.1738 13.6777 22.8496 13.4551C22.5254 13.2285 22.2676 12.9473 22.0762 12.6113C21.8848 12.2715 21.7891 11.875 21.7891 11.4219H23.2598C23.2598 11.6992 23.3066 11.9355 23.4004 12.1309C23.498 12.3262 23.6328 12.4863 23.8047 12.6113C23.9766 12.7324 24.1758 12.8223 24.4023 12.8809C24.6328 12.9395 24.8789 12.9688 25.1406 12.9688C25.4844 12.9688 25.7715 12.9199 26.002 12.8223C26.2363 12.7246 26.4121 12.5879 26.5293 12.4121C26.6465 12.2363 26.7051 12.0332 26.7051 11.8027ZM33.1562 12.5059V7.66016H34.5742V14H33.2383L33.1562 12.5059ZM33.3555 11.1875L33.8301 11.1758C33.8301 11.6016 33.7832 11.9941 33.6895 12.3535C33.5957 12.709 33.4512 13.0195 33.2559 13.2852C33.0605 13.5469 32.8105 13.752 32.5059 13.9004C32.2012 14.0449 31.8359 14.1172 31.4102 14.1172C31.1016 14.1172 30.8184 14.0723 30.5605 13.9824C30.3027 13.8926 30.0801 13.7539 29.8926 13.5664C29.709 13.3789 29.5664 13.1348 29.4648 12.834C29.3633 12.5332 29.3125 12.1738 29.3125 11.7559V7.66016H30.7246V11.7676C30.7246 11.998 30.752 12.1914 30.8066 12.3477C30.8613 12.5 30.9355 12.623 31.0293 12.7168C31.123 12.8105 31.2324 12.877 31.3574 12.916C31.4824 12.9551 31.6152 12.9746 31.7559 12.9746C32.1582 12.9746 32.4746 12.8965 32.7051 12.7402C32.9395 12.5801 33.1055 12.3652 33.2031 12.0957C33.3047 11.8262 33.3555 11.5234 33.3555 11.1875ZM36.0273 5H37.4395V12.6465L37.3047 14H36.0273V5ZM41.5762 10.7715V10.8945C41.5762 11.3633 41.5234 11.7949 41.418 12.1895C41.3164 12.5801 41.1602 12.9199 40.9492 13.209C40.7422 13.498 40.4844 13.7227 40.1758 13.8828C39.8711 14.0391 39.5176 14.1172 39.1152 14.1172C38.7207 14.1172 38.377 14.043 38.084 13.8945C37.791 13.7461 37.5449 13.5352 37.3457 13.2617C37.1504 12.9883 36.9922 12.6621 36.8711 12.2832C36.75 11.9043 36.6641 11.4863 36.6133 11.0293V10.6367C36.6641 10.1758 36.75 9.75781 36.8711 9.38281C36.9922 9.00391 37.1504 8.67773 37.3457 8.4043C37.5449 8.12695 37.7891 7.91406 38.0781 7.76562C38.3711 7.61719 38.7129 7.54297 39.1035 7.54297C39.5098 7.54297 39.8672 7.62109 40.1758 7.77734C40.4883 7.93359 40.748 8.15625 40.9551 8.44531C41.1621 8.73047 41.3164 9.07031 41.418 9.46484C41.5234 9.85938 41.5762 10.2949 41.5762 10.7715ZM40.1641 10.8945V10.7715C40.1641 10.4863 40.1406 10.2188 40.0938 9.96875C40.0469 9.71484 39.9688 9.49219 39.8594 9.30078C39.7539 9.10938 39.6094 8.95898 39.4258 8.84961C39.2461 8.73633 39.0215 8.67969 38.752 8.67969C38.502 8.67969 38.2871 8.72266 38.1074 8.80859C37.9277 8.89453 37.7773 9.01172 37.6562 9.16016C37.5352 9.30859 37.4395 9.48047 37.3691 9.67578C37.3027 9.87109 37.2578 10.082 37.2344 10.3086V11.3691C37.2695 11.6621 37.3438 11.9316 37.457 12.1777C37.5742 12.4199 37.7383 12.6152 37.9492 12.7637C38.1602 12.9082 38.4316 12.9805 38.7637 12.9805C39.0254 12.9805 39.2461 12.9277 39.4258 12.8223C39.6055 12.7168 39.748 12.5703 39.8535 12.3828C39.9629 12.1914 40.041 11.9688 40.0879 11.7148C40.1387 11.4609 40.1641 11.1875 40.1641 10.8945ZM47.4004 11.8027C47.4004 11.627 47.373 11.4707 47.3184 11.334C47.2676 11.1973 47.1758 11.0723 47.043 10.959C46.9102 10.8457 46.7227 10.7363 46.4805 10.6309C46.2422 10.5215 45.9375 10.4102 45.5664 10.2969C45.1602 10.1719 44.7852 10.0332 44.4414 9.88086C44.1016 9.72461 43.8047 9.54492 43.5508 9.3418C43.2969 9.13477 43.0996 8.89844 42.959 8.63281C42.8184 8.36328 42.748 8.05273 42.748 7.70117C42.748 7.35352 42.8203 7.03711 42.9648 6.75195C43.1133 6.4668 43.3223 6.2207 43.5918 6.01367C43.8652 5.80273 44.1875 5.64062 44.5586 5.52734C44.9297 5.41016 45.3398 5.35156 45.7891 5.35156C46.4219 5.35156 46.9668 5.46875 47.4238 5.70312C47.8848 5.9375 48.2383 6.25195 48.4844 6.64648C48.7344 7.04102 48.8594 7.47656 48.8594 7.95312H47.4004C47.4004 7.67188 47.3398 7.42383 47.2188 7.20898C47.1016 6.99023 46.9219 6.81836 46.6797 6.69336C46.4414 6.56836 46.1387 6.50586 45.7715 6.50586C45.4238 6.50586 45.1348 6.55859 44.9043 6.66406C44.6738 6.76953 44.502 6.91211 44.3887 7.0918C44.2754 7.27148 44.2188 7.47461 44.2188 7.70117C44.2188 7.86133 44.2559 8.00781 44.3301 8.14062C44.4043 8.26953 44.5176 8.39062 44.6699 8.50391C44.8223 8.61328 45.0137 8.7168 45.2441 8.81445C45.4746 8.91211 45.7461 9.00586 46.0586 9.0957C46.5312 9.23633 46.9434 9.39258 47.2949 9.56445C47.6465 9.73242 47.9395 9.92383 48.1738 10.1387C48.4082 10.3535 48.584 10.5977 48.7012 10.8711C48.8184 11.1406 48.877 11.4473 48.877 11.791C48.877 12.1504 48.8047 12.4746 48.6602 12.7637C48.5156 13.0488 48.3086 13.293 48.0391 13.4961C47.7734 13.6953 47.4531 13.8496 47.0781 13.959C46.707 14.0645 46.293 14.1172 45.8359 14.1172C45.4258 14.1172 45.0215 14.0625 44.623 13.9531C44.2285 13.8438 43.8691 13.6777 43.5449 13.4551C43.2207 13.2285 42.9629 12.9473 42.7715 12.6113C42.5801 12.2715 42.4844 11.875 42.4844 11.4219H43.9551C43.9551 11.6992 44.002 11.9355 44.0957 12.1309C44.1934 12.3262 44.3281 12.4863 44.5 12.6113C44.6719 12.7324 44.8711 12.8223 45.0977 12.8809C45.3281 12.9395 45.5742 12.9688 45.8359 12.9688C46.1797 12.9688 46.4668 12.9199 46.6973 12.8223C46.9316 12.7246 47.1074 12.5879 47.2246 12.4121C47.3418 12.2363 47.4004 12.0332 47.4004 11.8027ZM52.832 14.1172C52.3633 14.1172 51.9395 14.041 51.5605 13.8887C51.1855 13.7324 50.8652 13.5156 50.5996 13.2383C50.3379 12.9609 50.1367 12.6348 49.9961 12.2598C49.8555 11.8848 49.7852 11.4805 49.7852 11.0469V10.8125C49.7852 10.3164 49.8574 9.86719 50.002 9.46484C50.1465 9.0625 50.3477 8.71875 50.6055 8.43359C50.8633 8.14453 51.168 7.92383 51.5195 7.77148C51.8711 7.61914 52.252 7.54297 52.6621 7.54297C53.1152 7.54297 53.5117 7.61914 53.8516 7.77148C54.1914 7.92383 54.4727 8.13867 54.6953 8.41602C54.9219 8.68945 55.0898 9.01562 55.1992 9.39453C55.3125 9.77344 55.3691 10.1914 55.3691 10.6484V11.252H50.4707V10.2383H53.9746V10.127C53.9668 9.87305 53.916 9.63477 53.8223 9.41211C53.7324 9.18945 53.5938 9.00977 53.4062 8.87305C53.2188 8.73633 52.9688 8.66797 52.6562 8.66797C52.4219 8.66797 52.2129 8.71875 52.0293 8.82031C51.8496 8.91797 51.6992 9.06055 51.5781 9.24805C51.457 9.43555 51.3633 9.66211 51.2969 9.92773C51.2344 10.1895 51.2031 10.4844 51.2031 10.8125V11.0469C51.2031 11.3242 51.2402 11.582 51.3145 11.8203C51.3926 12.0547 51.5059 12.2598 51.6543 12.4355C51.8027 12.6113 51.9824 12.75 52.1934 12.8516C52.4043 12.9492 52.6445 12.998 52.9141 12.998C53.2539 12.998 53.5566 12.9297 53.8223 12.793C54.0879 12.6562 54.3184 12.4629 54.5137 12.2129L55.2578 12.9336C55.1211 13.1328 54.9434 13.3242 54.7246 13.5078C54.5059 13.6875 54.2383 13.834 53.9219 13.9473C53.6094 14.0605 53.2461 14.1172 52.832 14.1172ZM57.8711 9.01367V14H56.459V7.66016H57.7891L57.8711 9.01367ZM57.6191 10.5957L57.1621 10.5898C57.166 10.1406 57.2285 9.72852 57.3496 9.35352C57.4746 8.97852 57.6465 8.65625 57.8652 8.38672C58.0879 8.11719 58.3535 7.91016 58.6621 7.76562C58.9707 7.61719 59.3145 7.54297 59.6934 7.54297C59.998 7.54297 60.2734 7.58594 60.5195 7.67188C60.7695 7.75391 60.9824 7.88867 61.1582 8.07617C61.3379 8.26367 61.4746 8.50781 61.5684 8.80859C61.6621 9.10547 61.709 9.4707 61.709 9.9043V14H60.291V9.89844C60.291 9.59375 60.2461 9.35352 60.1562 9.17773C60.0703 8.99805 59.9434 8.87109 59.7754 8.79688C59.6113 8.71875 59.4062 8.67969 59.1602 8.67969C58.918 8.67969 58.7012 8.73047 58.5098 8.83203C58.3184 8.93359 58.1562 9.07227 58.0234 9.24805C57.8945 9.42383 57.7949 9.62695 57.7246 9.85742C57.6543 10.0879 57.6191 10.334 57.6191 10.5957ZM66.0566 7.66016V8.69141H62.4824V7.66016H66.0566ZM63.5137 6.10742H64.9258V12.248C64.9258 12.4434 64.9531 12.5938 65.0078 12.6992C65.0664 12.8008 65.1465 12.8691 65.248 12.9043C65.3496 12.9395 65.4688 12.957 65.6055 12.957C65.7031 12.957 65.7969 12.9512 65.8867 12.9395C65.9766 12.9277 66.0488 12.916 66.1035 12.9043L66.1094 13.9824C65.9922 14.0176 65.8555 14.0488 65.6992 14.0762C65.5469 14.1035 65.3711 14.1172 65.1719 14.1172C64.8477 14.1172 64.5605 14.0605 64.3105 13.9473C64.0605 13.8301 63.8652 13.6406 63.7246 13.3789C63.584 13.1172 63.5137 12.7695 63.5137 12.3359V6.10742ZM68.5645 8.86719V14H67.1523V7.66016H68.5L68.5645 8.86719ZM70.5039 7.61914L70.4922 8.93164C70.4062 8.91602 70.3125 8.9043 70.2109 8.89648C70.1133 8.88867 70.0156 8.88477 69.918 8.88477C69.6758 8.88477 69.4629 8.91992 69.2793 8.99023C69.0957 9.05664 68.9414 9.1543 68.8164 9.2832C68.6953 9.4082 68.6016 9.56055 68.5352 9.74023C68.4688 9.91992 68.4297 10.1211 68.418 10.3438L68.0957 10.3672C68.0957 9.96875 68.1348 9.59961 68.2129 9.25977C68.291 8.91992 68.4082 8.62109 68.5645 8.36328C68.7246 8.10547 68.9238 7.9043 69.1621 7.75977C69.4043 7.61523 69.6836 7.54297 70 7.54297C70.0859 7.54297 70.1777 7.55078 70.2754 7.56641C70.377 7.58203 70.4531 7.59961 70.5039 7.61914ZM73.334 13.3086L75.0566 7.66016H76.5684L74.0254 14.9668C73.9668 15.123 73.8906 15.293 73.7969 15.4766C73.7031 15.6602 73.5801 15.834 73.4277 15.998C73.2793 16.166 73.0938 16.3008 72.8711 16.4023C72.6484 16.5078 72.3789 16.5605 72.0625 16.5605C71.9375 16.5605 71.8164 16.5488 71.6992 16.5254C71.5859 16.5059 71.4785 16.4844 71.377 16.4609L71.3711 15.3828C71.4102 15.3867 71.457 15.3906 71.5117 15.3945C71.5703 15.3984 71.6172 15.4004 71.6523 15.4004C71.8867 15.4004 72.082 15.3711 72.2383 15.3125C72.3945 15.2578 72.5215 15.168 72.6191 15.043C72.7207 14.918 72.8066 14.75 72.877 14.5391L73.334 13.3086ZM72.3613 7.66016L73.8672 12.4062L74.1191 13.8945L73.1406 14.1465L70.8379 7.66016H72.3613Z" fill="#032539"/>
</svg>
